<svg xmlns="http://www.w3.org/2000/svg" width="443" height="80" viewBox="0 0 443 80">
  <style>
    @media (prefers-color-scheme: light) { .label { fill: #1e1b4b; } }
    @media (prefers-color-scheme: dark)  { .label { fill: #ffffff; } }
  </style>

  <!-- Label -->
  <text class="label" x="221.5" y="26" text-anchor="middle" font-family="-apple-system,BlinkMacSystemFont,'Segoe UI',Helvetica,Arial,sans-serif" font-size="15" font-weight="600">Languages</text>

  <!-- Badges -->
  <!-- C# -->
  <rect x="0"     y="52" width="96" height="28" rx="4" fill="#1d7a1a"/>
  <rect x="0"     y="52" width="7"    height="28" rx="4" fill="#145312"/>
  <rect x="3" y="52" width="4"    height="28"        fill="#145312"/>
  <text x="52" y="70" text-anchor="middle" fill="#ffffff" font-family="-apple-system,BlinkMacSystemFont,'Segoe UI',Helvetica,Arial,sans-serif" font-size="11" font-weight="700" letter-spacing="0.8">C#</text>

  <!-- JAVASCRIPT -->
  <rect x="104"     y="52" width="131" height="28" rx="4" fill="#e0c910"/>
  <rect x="104"     y="52" width="7"    height="28" rx="4" fill="#98890b"/>
  <rect x="107" y="52" width="4"    height="28"        fill="#98890b"/>
  <text x="173" y="70" text-anchor="middle" fill="#1a1a1a" font-family="-apple-system,BlinkMacSystemFont,'Segoe UI',Helvetica,Arial,sans-serif" font-size="11" font-weight="700" letter-spacing="0.8">JAVASCRIPT</text>

  <!-- HTML5 -->
  <rect x="243"     y="52" width="96" height="28" rx="4" fill="#cc4420"/>
  <rect x="243"     y="52" width="7"    height="28" rx="4" fill="#8b2e16"/>
  <rect x="246" y="52" width="4"    height="28"        fill="#8b2e16"/>
  <text x="295" y="70" text-anchor="middle" fill="#ffffff" font-family="-apple-system,BlinkMacSystemFont,'Segoe UI',Helvetica,Arial,sans-serif" font-size="11" font-weight="700" letter-spacing="0.8">HTML5</text>

  <!-- CSS3 -->
  <rect x="347"     y="52" width="96" height="28" rx="4" fill="#1262a0"/>
  <rect x="347"     y="52" width="7"    height="28" rx="4" fill="#0c436d"/>
  <rect x="350" y="52" width="4"    height="28"        fill="#0c436d"/>
  <text x="399" y="70" text-anchor="middle" fill="#ffffff" font-family="-apple-system,BlinkMacSystemFont,'Segoe UI',Helvetica,Arial,sans-serif" font-size="11" font-weight="700" letter-spacing="0.8">CSS3</text>

</svg>