<svg xmlns="http://www.w3.org/2000/svg" width="627" height="80" viewBox="0 0 627 80">
  <style>
    @media (prefers-color-scheme: light) { .label { fill: #1e1b4b; } }
    @media (prefers-color-scheme: dark)  { .label { fill: #ffffff; } }
  </style>

  <!-- Label -->
  <text class="label" x="313.5" y="26" text-anchor="middle" font-family="-apple-system,BlinkMacSystemFont,'Segoe UI',Helvetica,Arial,sans-serif" font-size="15" font-weight="600">Tools &amp; Environment</text>

  <!-- Badges -->
  <!-- GIT -->
  <rect x="0"     y="52" width="96" height="28" rx="4" fill="#d94229"/>
  <rect x="0"     y="52" width="7"    height="28" rx="4" fill="#942d1c"/>
  <rect x="3" y="52" width="4"    height="28"        fill="#942d1c"/>
  <text x="52" y="70" text-anchor="middle" fill="#ffffff" font-family="-apple-system,BlinkMacSystemFont,'Segoe UI',Helvetica,Arial,sans-serif" font-size="11" font-weight="700" letter-spacing="0.8">GIT</text>

  <!-- GITHUB -->
  <rect x="104"     y="52" width="97" height="28" rx="4" fill="#1c2025"/>
  <rect x="104"     y="52" width="7"    height="28" rx="4" fill="#131619"/>
  <rect x="107" y="52" width="4"    height="28"        fill="#131619"/>
  <text x="156" y="70" text-anchor="middle" fill="#ffffff" font-family="-apple-system,BlinkMacSystemFont,'Segoe UI',Helvetica,Arial,sans-serif" font-size="11" font-weight="700" letter-spacing="0.8">GITHUB</text>

  <!-- VISUAL STUDIO -->
  <rect x="209"     y="52" width="157" height="28" rx="4" fill="#4d2680"/>
  <rect x="209"     y="52" width="7"    height="28" rx="4" fill="#341a57"/>
  <rect x="212" y="52" width="4"    height="28"        fill="#341a57"/>
  <text x="291" y="70" text-anchor="middle" fill="#ffffff" font-family="-apple-system,BlinkMacSystemFont,'Segoe UI',Helvetica,Arial,sans-serif" font-size="11" font-weight="700" letter-spacing="0.8">VISUAL STUDIO</text>

  <!-- VS CODE -->
  <rect x="374"     y="52" width="105" height="28" rx="4" fill="#0069b3"/>
  <rect x="374"     y="52" width="7"    height="28" rx="4" fill="#00477a"/>
  <rect x="377" y="52" width="4"    height="28"        fill="#00477a"/>
  <text x="430" y="70" text-anchor="middle" fill="#ffffff" font-family="-apple-system,BlinkMacSystemFont,'Segoe UI',Helvetica,Arial,sans-serif" font-size="11" font-weight="700" letter-spacing="0.8">VS CODE</text>

  <!-- CLAUDE CODE -->
  <rect x="487"     y="52" width="140" height="28" rx="4" fill="#bf6a05"/>
  <rect x="487"     y="52" width="7"    height="28" rx="4" fill="#824803"/>
  <rect x="490" y="52" width="4"    height="28"        fill="#824803"/>
  <text x="561" y="70" text-anchor="middle" fill="#ffffff" font-family="-apple-system,BlinkMacSystemFont,'Segoe UI',Helvetica,Arial,sans-serif" font-size="11" font-weight="700" letter-spacing="0.8">CLAUDE CODE</text>

</svg>