<svg xmlns="http://www.w3.org/2000/svg" viewBox="0 0 1500 160" width="100%" height="100%">

  <defs>
    <linearGradient id="bg-grad-inv" x1="0" y1="0" x2="1" y2="0">
      <stop offset="0%"   stop-color="#0d1117"/>
      <stop offset="40%"  stop-color="#1e1b4b"/>
      <stop offset="100%" stop-color="#4c1d95"/>
    </linearGradient>

    <filter id="alpha-boost-inv">
      <feComponentTransfer>
        <feFuncA type="linear" slope="1.15" />
      </feComponentTransfer>
    </filter>

    <mask id="wave-mask-inv">
      <g filter="url(#alpha-boost-inv)">

        <path fill="#ffffff" opacity="0.5" d="M 0 40
C 222 0, 444 0, 667 40
C 889 80, 1111 80, 1334 40
C 1556 0, 1778 0, 2000 40
C 2222 80, 2444 80, 2667 40
C 2889 0, 3111 0, 3334 40
V 350 H 0 Z">
          <animateTransform attributeName="transform" type="translate" from="-1334 0" to="0 0" dur="5s" repeatCount="indefinite"/>
        </path>

        <path fill="#ffffff" opacity="0.5" d="M 0 40
C 222 0, 444 0, 667 40
C 889 80, 1111 80, 1334 40
C 1556 0, 1778 0, 2000 40
C 2222 80, 2444 80, 2667 40
C 2889 0, 3111 0, 3334 40
V 350 H 0 Z">
          <animateTransform attributeName="transform" type="translate" from="-1334 0" to="0 0" dur="6s" repeatCount="indefinite"/>
        </path>

        <path fill="#ffffff" opacity="0.5" d="M 0 40
C 222 0, 444 0, 667 40
C 889 80, 1111 80, 1334 40
C 1556 0, 1778 0, 2000 40
C 2222 80, 2444 80, 2667 40
C 2889 0, 3111 0, 3334 40
V 350 H 0 Z">
          <animateTransform attributeName="transform" type="translate" from="-1334 0" to="0 0" dur="12s" repeatCount="indefinite"/>
        </path>

      </g>
    </mask>
  </defs>

  <rect width="100%" height="100%" fill="url(#bg-grad-inv)" mask="url(#wave-mask-inv)" />

</svg>