<svg xmlns="http://www.w3.org/2000/svg" viewBox="0 0 1500 160" width="100%" height="100%">
  <defs>
    <linearGradient id="bg-grad-inv" x1="0" y1="0" x2="1" y2="0">
      <stop offset="0%" stop-color="rgb(30, 27, 75)"/>
      <stop offset="100%" stop-color="rgb(76, 29, 149)"/>
    </linearGradient>

    <linearGradient id="fade-grad" x1="0" y1="0" x2="1" y2="0">
      <stop offset="0%"              stop-color="white" stop-opacity="0"/>
      <stop offset="50%"  stop-color="white" stop-opacity="1"/>
      <stop offset="100%"             stop-color="white" stop-opacity="1"/>
    </linearGradient>
    <mask id="fade-mask">
      <rect width="100%" height="100%" fill="url(#fade-grad)"/>
    </mask>

    <filter id="alpha-boost-inv">
      <feComponentTransfer>
        <feFuncA type="linear" slope="1.15" />
      </feComponentTransfer>
    </filter>

    <filter id="text-shadow" x="-10%" y="-30%" width="120%" height="160%">
      <feDropShadow dx="0" dy="0" stdDeviation="6" flood-color="#000000" flood-opacity="0.7"/>
      <feDropShadow dx="0" dy="2" stdDeviation="2" flood-color="#000000" flood-opacity="0.5"/>
    </filter>

    <mask id="wave-mask-inv">
      <g filter="url(#alpha-boost-inv)">

        <path fill="#ffffff" opacity="0.5" d="M 0 40
C 222 0, 444 0, 667 40
C 889 80, 1111 80, 1334 40
C 1556 0, 1778 0, 2000 40
C 2222 80, 2444 80, 2667 40
C 2889 0, 3111 0, 3334 40
V 350 H 0 Z">
          <animateTransform attributeName="transform" type="translate" from="-1334 0" to="0 0" dur="5s" repeatCount="indefinite"/>
        </path>

        <path fill="#ffffff" opacity="0.5" d="M 0 40
C 222 0, 444 0, 667 40
C 889 80, 1111 80, 1334 40
C 1556 0, 1778 0, 2000 40
C 2222 80, 2444 80, 2667 40
C 2889 0, 3111 0, 3334 40
V 350 H 0 Z">
          <animateTransform attributeName="transform" type="translate" from="-1334 0" to="0 0" dur="9s" repeatCount="indefinite"/>
        </path>

        <path fill="#ffffff" opacity="0.5" d="M 0 40
C 222 0, 444 0, 667 40
C 889 80, 1111 80, 1334 40
C 1556 0, 1778 0, 2000 40
C 2222 80, 2444 80, 2667 40
C 2889 0, 3111 0, 3334 40
V 350 H 0 Z">
          <animateTransform attributeName="transform" type="translate" from="-1334 0" to="0 0" dur="14s" repeatCount="indefinite"/>
        </path>

      </g>
    </mask>
  </defs>

  <g mask="url(#fade-mask)">
  <rect width="100%" height="100%" fill="url(#bg-grad-inv)" mask="url(#wave-mask-inv)" />

  <!-- Powered by -->
  <text x="750" y="138"
    font-family="-apple-system,BlinkMacSystemFont,'Segoe UI',Helvetica,Arial,sans-serif"
    font-size="18"
    fill="#ffffff"
    fill-opacity="0.5"
    text-anchor="middle"
    letter-spacing="0.5"
    filter="url(#text-shadow)">
    made with BerkaySevinc/easy-github-profile
  </text>
  </g>

</svg>