<svg xmlns="http://www.w3.org/2000/svg" viewBox="0 0 1500 310" width="100%" height="100%">
  <defs>
    <linearGradient id="bg-grad-inv" x1="0" y1="0" x2="1" y2="0">
      <stop offset="0%" stop-color="rgb(30, 27, 75)"/>
      <stop offset="100%" stop-color="rgb(76, 29, 149)"/>
    </linearGradient>

    <linearGradient id="fade-grad" x1="0" y1="0" x2="1" y2="0">
      <stop offset="0%"              stop-color="white" stop-opacity="0"/>
      <stop offset="40%"  stop-color="white" stop-opacity="1"/>
      <stop offset="100%"             stop-color="white" stop-opacity="1"/>
    </linearGradient>
    <mask id="fade-mask">
      <rect width="100%" height="100%" fill="url(#fade-grad)"/>
    </mask>

    <filter id="alpha-boost-inv">
      <feComponentTransfer>
        <feFuncA type="linear" slope="1.15" />
      </feComponentTransfer>
    </filter>

    <filter id="text-glow" x="-10%" y="-30%" width="120%" height="160%">
      <feDropShadow dx="0" dy="0" stdDeviation="6" flood-color="#000000" flood-opacity="0.7"/>
      <feDropShadow dx="0" dy="2" stdDeviation="2" flood-color="#000000" flood-opacity="0.5"/>
    </filter>

    <mask id="wave-mask-inv">
      <g filter="url(#alpha-boost-inv)">

        <path fill="#ffffff" opacity="0.5" d="M 0 270
C 222 310, 444 310, 667 270
C 889 230, 1111 230, 1334 270
C 1556 310, 1778 310, 2000 270
C 2222 230, 2444 230, 2667 270
C 2889 310, 3111 310, 3334 270
V 0 H 0 Z">
          <animateTransform attributeName="transform" type="translate"
            from="-1334 0" to="0 0" dur="4s" repeatCount="indefinite"/>
        </path>

        <path fill="#ffffff" opacity="0.5" d="M 0 270
C 222 310, 444 310, 667 270
C 889 230, 1111 230, 1334 270
C 1556 310, 1778 310, 2000 270
C 2222 230, 2444 230, 2667 270
C 2889 310, 3111 310, 3334 270
V 0 H 0 Z">
          <animateTransform attributeName="transform" type="translate"
            from="-1334 0" to="0 0" dur="7s" repeatCount="indefinite"/>
        </path>

        <path fill="#ffffff" opacity="0.5" d="M 0 270
C 222 310, 444 310, 667 270
C 889 230, 1111 230, 1334 270
C 1556 310, 1778 310, 2000 270
C 2222 230, 2444 230, 2667 270
C 2889 310, 3111 310, 3334 270
V 0 H 0 Z">
          <animateTransform attributeName="transform" type="translate"
            from="-1334 0" to="0 0" dur="13s" repeatCount="indefinite"/>
        </path>

      </g>
    </mask>
  </defs>

  <g mask="url(#fade-mask)">
  <!-- Layer 1: Full gradient rect with wave mask (provides wave cutout effect) -->
  <rect width="1500" height="310" fill="url(#bg-grad-inv)" mask="url(#wave-mask-inv)" />

  <!-- Layer 2: Static gradient rect covering text area only — isolates text from mask compositing -->
  <rect width="1500" height="230" fill="url(#bg-grad-inv)" />

  <!-- Layer 3: Text elements -->
  <!-- TITLE -->
  <text x="750" y="130"
    font-family="Segoe UI, Arial, sans-serif"
    font-size="68"
    font-weight="700"
    fill="#fff"
    text-anchor="middle"
    letter-spacing="-1"
    filter="url(#text-glow)">
    Berkay Sevinç
  </text>

  <!-- DESC -->
  <text x="750" y="178"
    font-family="Segoe UI, Arial, sans-serif"
    font-size="19"
    font-weight="400"
    fill="#e2d9f3"
    text-anchor="middle"
    letter-spacing="0.5"
    filter="url(#text-glow)">
    Software Engineer
  </text>
  </g>

</svg>